<?xml version="1.0" encoding="us-ascii" standalone="no"?><svg xmlns="http://www.w3.org/2000/svg" xmlns:xlink="http://www.w3.org/1999/xlink" contentStyleType="text/css" height="1029px" preserveAspectRatio="none" style="width:554px;height:1029px;background:#FFFFFF;" version="1.1" viewBox="0 0 554 1029" width="554px" zoomAndPan="magnify"><defs/><g><rect fill="#FFBBBB" height="69.2656" style="stroke:#181818;stroke-width:1.0;" width="10" x="290" y="303.2266"/><rect fill="none" height="123.5313" style="stroke:#000000;stroke-width:1.5;" width="277.5" x="260" y="256.9609"/><rect fill="none" height="197.9297" style="stroke:#000000;stroke-width:1.5;" width="527.5" x="10" y="437.625"/><rect fill="none" height="239.0625" style="stroke:#000000;stroke-width:1.5;" width="289.5" x="248" y="692.6875"/><line style="stroke:#181818;stroke-width:0.5;stroke-dasharray:5.0,5.0;" x1="47" x2="47" y1="81.2969" y2="948.75"/><line style="stroke:#181818;stroke-width:0.5;stroke-dasharray:5.0,5.0;" x1="111" x2="111" y1="81.2969" y2="948.75"/><line style="stroke:#181818;stroke-width:0.5;stroke-dasharray:5.0,5.0;" x1="175" x2="175" y1="81.2969" y2="948.75"/><line style="stroke:#181818;stroke-width:0.5;stroke-dasharray:5.0,5.0;" x1="295" x2="295" y1="81.2969" y2="948.75"/><line style="stroke:#181818;stroke-width:0.5;stroke-dasharray:5.0,5.0;" x1="474.5" x2="474.5" y1="81.2969" y2="948.75"/><text fill="#000000" font-family="sans-serif" font-size="14" lengthAdjust="spacing" textLength="48" x="20" y="77.9951">Client1</text><ellipse cx="47" cy="13.5" fill="#E2E2F0" rx="8" ry="8" style="stroke:#181818;stroke-width:0.5;"/><path d="M47,21.5 L47,48.5 M34,29.5 L60,29.5 M47,48.5 L34,63.5 M47,48.5 L60,63.5 " fill="none" style="stroke:#181818;stroke-width:0.5;"/><text fill="#000000" font-family="sans-serif" font-size="14" lengthAdjust="spacing" textLength="48" x="20" y="960.7451">Client1</text><ellipse cx="47" cy="972.5469" fill="#E2E2F0" rx="8" ry="8" style="stroke:#181818;stroke-width:0.5;"/><path d="M47,980.5469 L47,1007.5469 M34,988.5469 L60,988.5469 M47,1007.5469 L34,1022.5469 M47,1007.5469 L60,1022.5469 " fill="none" style="stroke:#181818;stroke-width:0.5;"/><text fill="#000000" font-family="sans-serif" font-size="14" lengthAdjust="spacing" textLength="48" x="84" y="77.9951">Client2</text><ellipse cx="111" cy="13.5" fill="#E2E2F0" rx="8" ry="8" style="stroke:#181818;stroke-width:0.5;"/><path d="M111,21.5 L111,48.5 M98,29.5 L124,29.5 M111,48.5 L98,63.5 M111,48.5 L124,63.5 " fill="none" style="stroke:#181818;stroke-width:0.5;"/><text fill="#000000" font-family="sans-serif" font-size="14" lengthAdjust="spacing" textLength="48" x="84" y="960.7451">Client2</text><ellipse cx="111" cy="972.5469" fill="#E2E2F0" rx="8" ry="8" style="stroke:#181818;stroke-width:0.5;"/><path d="M111,980.5469 L111,1007.5469 M98,988.5469 L124,988.5469 M111,1007.5469 L98,1022.5469 M111,1007.5469 L124,1022.5469 " fill="none" style="stroke:#181818;stroke-width:0.5;"/><text fill="#000000" font-family="sans-serif" font-size="14" lengthAdjust="spacing" textLength="48" x="148" y="77.9951">Client3</text><ellipse cx="175" cy="13.5" fill="#E2E2F0" rx="8" ry="8" style="stroke:#181818;stroke-width:0.5;"/><path d="M175,21.5 L175,48.5 M162,29.5 L188,29.5 M175,48.5 L162,63.5 M175,48.5 L188,63.5 " fill="none" style="stroke:#181818;stroke-width:0.5;"/><text fill="#000000" font-family="sans-serif" font-size="14" lengthAdjust="spacing" textLength="48" x="148" y="960.7451">Client3</text><ellipse cx="175" cy="972.5469" fill="#E2E2F0" rx="8" ry="8" style="stroke:#181818;stroke-width:0.5;"/><path d="M175,980.5469 L175,1007.5469 M162,988.5469 L188,988.5469 M175,1007.5469 L162,1022.5469 M175,1007.5469 L188,1022.5469 " fill="none" style="stroke:#181818;stroke-width:0.5;"/><text fill="#000000" font-family="sans-serif" font-size="14" lengthAdjust="spacing" textLength="44" x="270" y="77.9951">Server</text><path d="M274.5,37 L274.5,61 M274.5,49 L291.5,49 " fill="none" style="stroke:#181818;stroke-width:0.5;"/><ellipse cx="303.5" cy="49" fill="#E2E2F0" rx="12" ry="12" style="stroke:#181818;stroke-width:0.5;"/><text fill="#000000" font-family="sans-serif" font-size="14" lengthAdjust="spacing" textLength="44" x="270" y="960.7451">Server</text><path d="M274.5,968.0469 L274.5,992.0469 M274.5,980.0469 L291.5,980.0469 " fill="none" style="stroke:#181818;stroke-width:0.5;"/><ellipse cx="303.5" cy="980.0469" fill="#E2E2F0" rx="12" ry="12" style="stroke:#181818;stroke-width:0.5;"/><text fill="#000000" font-family="sans-serif" font-size="14" lengthAdjust="spacing" textLength="99" x="422.5" y="77.9951">Client Sockets</text><path d="M457,29 C457,19 475,19 475,19 C475,19 493,19 493,29 L493,55 C493,65 475,65 475,65 C475,65 457,65 457,55 L457,29 " fill="#E2E2F0" style="stroke:#181818;stroke-width:1.5;"/><path d="M457,29 C457,39 475,39 475,39 C475,39 493,39 493,29 " fill="none" style="stroke:#181818;stroke-width:1.5;"/><text fill="#000000" font-family="sans-serif" font-size="14" lengthAdjust="spacing" textLength="99" x="422.5" y="960.7451">Client Sockets</text><path d="M457,974.0469 C457,964.0469 475,964.0469 475,964.0469 C475,964.0469 493,964.0469 493,974.0469 L493,1000.0469 C493,1010.0469 475,1010.0469 475,1010.0469 C475,1010.0469 457,1010.0469 457,1000.0469 L457,974.0469 " fill="#E2E2F0" style="stroke:#181818;stroke-width:1.5;"/><path d="M457,974.0469 C457,984.0469 475,984.0469 475,984.0469 C475,984.0469 493,984.0469 493,974.0469 " fill="none" style="stroke:#181818;stroke-width:1.5;"/><rect fill="#FFBBBB" height="69.2656" style="stroke:#181818;stroke-width:1.0;" width="10" x="290" y="303.2266"/><rect fill="#EEEEEE" height="3" style="stroke:#EEEEEE;stroke-width:1.0;" width="547.5" x="0" y="111.8633"/><line style="stroke:#000000;stroke-width:1.0;" x1="0" x2="547.5" y1="111.8633" y2="111.8633"/><line style="stroke:#000000;stroke-width:1.0;" x1="0" x2="547.5" y1="114.8633" y2="114.8633"/><rect fill="#EEEEEE" height="23.1328" style="stroke:#000000;stroke-width:2.0;" width="108" x="219.75" y="101.2969"/><text fill="#000000" font-family="sans-serif" font-size="13" font-weight="bold" lengthAdjust="spacing" textLength="89" x="225.75" y="117.3638">Initialization</text><line style="stroke:#181818;stroke-width:1.0;" x1="295" x2="337" y1="185.8281" y2="185.8281"/><line style="stroke:#181818;stroke-width:1.0;" x1="337" x2="337" y1="185.8281" y2="198.8281"/><line style="stroke:#181818;stroke-width:1.0;" x1="296" x2="337" y1="198.8281" y2="198.8281"/><polygon fill="#181818" points="306,194.8281,296,198.8281,306,202.8281,302,198.8281" style="stroke:#181818;stroke-width:1.0;"/><text fill="#000000" font-family="sans-serif" font-size="13" lengthAdjust="spacing" textLength="89" x="302" y="150.4966">Create socket</text><text fill="#000000" font-family="sans-serif" font-size="13" lengthAdjust="spacing" textLength="75" x="302" y="165.6294">Bind to port</text><text fill="#000000" font-family="sans-serif" font-size="13" lengthAdjust="spacing" textLength="38" x="302" y="180.7622">Listen</text><rect fill="#EEEEEE" height="3" style="stroke:#EEEEEE;stroke-width:1.0;" width="547.5" x="0" y="227.3945"/><line style="stroke:#000000;stroke-width:1.0;" x1="0" x2="547.5" y1="227.3945" y2="227.3945"/><line style="stroke:#000000;stroke-width:1.0;" x1="0" x2="547.5" y1="230.3945" y2="230.3945"/><rect fill="#EEEEEE" height="23.1328" style="stroke:#000000;stroke-width:2.0;" width="156" x="195.75" y="216.8281"/><text fill="#000000" font-family="sans-serif" font-size="13" font-weight="bold" lengthAdjust="spacing" textLength="137" x="201.75" y="232.895">Client Connections</text><path d="M260,256.9609 L337,256.9609 L337,264.0938 L327,274.0938 L260,274.0938 L260,256.9609 " fill="#EEEEEE" style="stroke:#000000;stroke-width:1.5;"/><rect fill="none" height="123.5313" style="stroke:#000000;stroke-width:1.5;" width="277.5" x="260" y="256.9609"/><text fill="#000000" font-family="sans-serif" font-size="13" font-weight="bold" lengthAdjust="spacing" textLength="32" x="275" y="270.0278">loop</text><text fill="#000000" font-family="sans-serif" font-size="11" font-weight="bold" lengthAdjust="spacing" textLength="112" x="352" y="269.1714">[Each new client]</text><line style="stroke:#181818;stroke-width:1.0;" x1="295" x2="342" y1="290.2266" y2="290.2266"/><line style="stroke:#181818;stroke-width:1.0;" x1="342" x2="342" y1="290.2266" y2="303.2266"/><line style="stroke:#181818;stroke-width:1.0;" x1="301" x2="342" y1="303.2266" y2="303.2266"/><polygon fill="#181818" points="311,299.2266,301,303.2266,311,307.2266,307,303.2266" style="stroke:#181818;stroke-width:1.0;"/><text fill="#000000" font-family="sans-serif" font-size="13" lengthAdjust="spacing" textLength="147" x="307" y="285.1606">Accept new connection</text><path d="M305,321.2266 L305,346.2266 L492,346.2266 L492,331.2266 L482,321.2266 L305,321.2266 " fill="#FEFFDD" style="stroke:#181818;stroke-width:0.5;"/><path d="M482,321.2266 L482,331.2266 L492,331.2266 L482,321.2266 " fill="#FEFFDD" style="stroke:#181818;stroke-width:0.5;"/><text fill="#000000" font-family="sans-serif" font-size="13" lengthAdjust="spacing" textLength="166" x="311" y="338.2935">Start new thread for client</text><polygon fill="#181818" points="463,368.4922,473,372.4922,463,376.4922,467,372.4922" style="stroke:#181818;stroke-width:1.0;"/><line style="stroke:#181818;stroke-width:1.0;" x1="295" x2="469" y1="372.4922" y2="372.4922"/><text fill="#000000" font-family="sans-serif" font-size="13" lengthAdjust="spacing" textLength="138" x="302" y="367.4263">Add new client socket</text><rect fill="#EEEEEE" height="3" style="stroke:#EEEEEE;stroke-width:1.0;" width="547.5" x="0" y="408.0586"/><line style="stroke:#000000;stroke-width:1.0;" x1="0" x2="547.5" y1="408.0586" y2="408.0586"/><line style="stroke:#000000;stroke-width:1.0;" x1="0" x2="547.5" y1="411.0586" y2="411.0586"/><rect fill="#EEEEEE" height="23.1328" style="stroke:#000000;stroke-width:2.0;" width="156" x="195.75" y="397.4922"/><text fill="#000000" font-family="sans-serif" font-size="13" font-weight="bold" lengthAdjust="spacing" textLength="137" x="201.75" y="413.5591">Message Handling</text><path d="M10,437.625 L259,437.625 L259,444.7578 L249,454.7578 L10,454.7578 L10,437.625 " fill="#EEEEEE" style="stroke:#000000;stroke-width:1.5;"/><rect fill="none" height="197.9297" style="stroke:#000000;stroke-width:1.5;" width="527.5" x="10" y="437.625"/><text fill="#000000" font-family="sans-serif" font-size="13" font-weight="bold" lengthAdjust="spacing" textLength="204" x="25" y="450.6919">Thread activities for Client1</text><path d="M256,459.7578 L256,484.7578 L514,484.7578 L514,469.7578 L504,459.7578 L256,459.7578 " fill="#FEFFDD" style="stroke:#181818;stroke-width:0.5;"/><path d="M504,459.7578 L504,469.7578 L514,469.7578 L504,459.7578 " fill="#FEFFDD" style="stroke:#181818;stroke-width:0.5;"/><text fill="#000000" font-family="sans-serif" font-size="13" lengthAdjust="spacing" textLength="237" x="262" y="476.8247">Thread for Client1 handles messages</text><polygon fill="#181818" points="58,507.0234,48,511.0234,58,515.0234,54,511.0234" style="stroke:#181818;stroke-width:1.0;"/><line style="stroke:#181818;stroke-width:1.0;" x1="52" x2="294" y1="511.0234" y2="511.0234"/><text fill="#000000" font-family="sans-serif" font-size="13" lengthAdjust="spacing" textLength="194" x="64" y="505.9575">Receive message from Client1</text><polygon fill="#181818" points="463,536.1563,473,540.1563,463,544.1563,467,540.1563" style="stroke:#181818;stroke-width:1.0;"/><line style="stroke:#181818;stroke-width:1.0;" x1="295" x2="469" y1="540.1563" y2="540.1563"/><text fill="#000000" font-family="sans-serif" font-size="13" lengthAdjust="spacing" textLength="74" x="302" y="535.0903">Lock mutex</text><polygon fill="#181818" points="122,565.2891,112,569.2891,122,573.2891,118,569.2891" style="stroke:#181818;stroke-width:1.0;"/><line style="stroke:#181818;stroke-width:1.0;" x1="116" x2="294" y1="569.2891" y2="569.2891"/><text fill="#000000" font-family="sans-serif" font-size="13" lengthAdjust="spacing" textLength="96" x="128" y="564.2231">Send message</text><polygon fill="#181818" points="186,594.4219,176,598.4219,186,602.4219,182,598.4219" style="stroke:#181818;stroke-width:1.0;"/><line style="stroke:#181818;stroke-width:1.0;" x1="180" x2="294" y1="598.4219" y2="598.4219"/><text fill="#000000" font-family="sans-serif" font-size="13" lengthAdjust="spacing" textLength="96" x="192" y="593.356">Send message</text><polygon fill="#181818" points="463,623.5547,473,627.5547,463,631.5547,467,627.5547" style="stroke:#181818;stroke-width:1.0;"/><line style="stroke:#181818;stroke-width:1.0;" x1="295" x2="469" y1="627.5547" y2="627.5547"/><text fill="#000000" font-family="sans-serif" font-size="13" lengthAdjust="spacing" textLength="88" x="302" y="622.4888">Unlock mutex</text><rect fill="#EEEEEE" height="3" style="stroke:#EEEEEE;stroke-width:1.0;" width="547.5" x="0" y="663.1211"/><line style="stroke:#000000;stroke-width:1.0;" x1="0" x2="547.5" y1="663.1211" y2="663.1211"/><line style="stroke:#000000;stroke-width:1.0;" x1="0" x2="547.5" y1="666.1211" y2="666.1211"/><rect fill="#EEEEEE" height="23.1328" style="stroke:#000000;stroke-width:2.0;" width="169" x="189.25" y="652.5547"/><text fill="#000000" font-family="sans-serif" font-size="13" font-weight="bold" lengthAdjust="spacing" textLength="150" x="195.25" y="668.6216">Client Disconnection</text><path d="M248,692.6875 L479,692.6875 L479,699.8203 L469,709.8203 L248,709.8203 L248,692.6875 " fill="#EEEEEE" style="stroke:#000000;stroke-width:1.5;"/><rect fill="none" height="239.0625" style="stroke:#000000;stroke-width:1.5;" width="289.5" x="248" y="692.6875"/><text fill="#000000" font-family="sans-serif" font-size="13" font-weight="bold" lengthAdjust="spacing" textLength="186" x="263" y="705.7544">End of Thread for Client1</text><path d="M258,714.8203 L258,739.8203 L510,739.8203 L510,724.8203 L500,714.8203 L258,714.8203 " fill="#FEFFDD" style="stroke:#181818;stroke-width:0.5;"/><path d="M500,714.8203 L500,724.8203 L510,724.8203 L500,714.8203 " fill="#FEFFDD" style="stroke:#181818;stroke-width:0.5;"/><text fill="#000000" font-family="sans-serif" font-size="13" lengthAdjust="spacing" textLength="209" x="275.25" y="731.8872">Client1 disconnects, thread ends</text><line style="stroke:#181818;stroke-width:1.0;" x1="295" x2="337" y1="766.0859" y2="766.0859"/><line style="stroke:#181818;stroke-width:1.0;" x1="337" x2="337" y1="766.0859" y2="779.0859"/><line style="stroke:#181818;stroke-width:1.0;" x1="296" x2="337" y1="779.0859" y2="779.0859"/><polygon fill="#181818" points="306,775.0859,296,779.0859,306,783.0859,302,779.0859" style="stroke:#181818;stroke-width:1.0;"/><text fill="#000000" font-family="sans-serif" font-size="13" lengthAdjust="spacing" textLength="116" x="302" y="761.02">Detect disconnect</text><polygon fill="#181818" points="463,804.2188,473,808.2188,463,812.2188,467,808.2188" style="stroke:#181818;stroke-width:1.0;"/><line style="stroke:#181818;stroke-width:1.0;" x1="295" x2="469" y1="808.2188" y2="808.2188"/><text fill="#000000" font-family="sans-serif" font-size="13" lengthAdjust="spacing" textLength="74" x="302" y="803.1528">Lock mutex</text><polygon fill="#181818" points="463,833.3516,473,837.3516,463,841.3516,467,837.3516" style="stroke:#181818;stroke-width:1.0;"/><line style="stroke:#181818;stroke-width:1.0;" x1="295" x2="469" y1="837.3516" y2="837.3516"/><text fill="#000000" font-family="sans-serif" font-size="13" lengthAdjust="spacing" textLength="156" x="302" y="832.2856">Remove Client1 from list</text><polygon fill="#181818" points="463,862.4844,473,866.4844,463,870.4844,467,866.4844" style="stroke:#181818;stroke-width:1.0;"/><line style="stroke:#181818;stroke-width:1.0;" x1="295" x2="469" y1="866.4844" y2="866.4844"/><text fill="#000000" font-family="sans-serif" font-size="13" lengthAdjust="spacing" textLength="88" x="302" y="861.4185">Unlock mutex</text><line style="stroke:#181818;stroke-width:1.0;" x1="295" x2="337" y1="910.75" y2="910.75"/><line style="stroke:#181818;stroke-width:1.0;" x1="337" x2="337" y1="910.75" y2="923.75"/><line style="stroke:#181818;stroke-width:1.0;" x1="296" x2="337" y1="923.75" y2="923.75"/><polygon fill="#181818" points="306,919.75,296,923.75,306,927.75,302,923.75" style="stroke:#181818;stroke-width:1.0;"/><text fill="#000000" font-family="sans-serif" font-size="13" lengthAdjust="spacing" textLength="81" x="302" y="890.5513">Close socket</text><text fill="#000000" font-family="sans-serif" font-size="13" lengthAdjust="spacing" textLength="111" x="302" y="905.6841">Terminate thread</text><!--SRC=[bLF9Ri8m4BtdAqRjbHuADwHKAW7KIlG2zDQBiOV4Qc97jg7BrtTYPmFIpITRUdxRs8mxRI399Ift6x7UQNnocaGxVL22cG_Oe3cYYGHpRCSimbL0m4RpLtJs2fXjzb4Kn_2ef9Cibv_CIQqWZgF003TtDTSK4eFC8LX_xKNDf1BWD9JQq6abhKFbkMgfH2k5lAAp5L-kTGaBnZDG-0RSOoAWTIbqppcMBk1Q4ezLcWmOcMOEzBx5Rnmp0UuoyYXWJvNq5AWZUQoirrBNo-MCrhbwg8FaXUXvhFDwiC0pgWYLy9cVq5gM8Zmm9NAfqYfnQlIXX6smv2zInsYzksQORIXTkGYaeyxAjijJtu2iKY2M8YZQinGrR0fhv2YFsE1WRtHn8ZkGV4KRA0uEtmTPnrGr1Mue1p6J7p6jqhFAEwscnFhXpANjnjuLkI1M6lfb9R-Ls3GdMbuxQbuAITjlNk4S7K5xj_xTMejOOq7MMYD-53bzc3-rC-mkoRNj_k8MJI5LzIv3hghIBm00]--></g></svg>